<svg width="158" height="151" viewBox="0 0 158 151" fill="none" xmlns="http://www.w3.org/2000/svg">
<path d="M30.4 112V140H24V123.72L16.76 135.6H16.04L8.8 123.72V140H2.4V112H8.8L16.4 124.44L24 112H30.4ZM44.6125 140.56C38.7325 140.56 34.0125 135.96 34.0125 130C34.0125 124.04 38.7325 119.44 44.6125 119.44C50.4925 119.44 55.2125 124.04 55.2125 130C55.2125 135.96 50.4925 140.56 44.6125 140.56ZM44.6125 134.72C47.2125 134.72 49.2125 132.84 49.2125 130C49.2125 127.16 47.2125 125.28 44.6125 125.28C42.0125 125.28 40.0125 127.16 40.0125 130C40.0125 132.84 42.0125 134.72 44.6125 134.72ZM69.9356 125.76H65.8156V132.84C65.8156 134.56 67.2956 134.72 69.9356 134.56V140C62.0956 140.8 59.8156 138.44 59.8156 132.84V125.76H56.6156V120H59.8156V116.2L65.8156 114.4V120H69.9356V125.76ZM82.5422 140.56C76.6622 140.56 71.9422 135.96 71.9422 130C71.9422 124.04 76.6622 119.44 82.5422 119.44C88.4222 119.44 93.1422 124.04 93.1422 130C93.1422 135.96 88.4222 140.56 82.5422 140.56ZM82.5422 134.72C85.1422 134.72 87.1422 132.84 87.1422 130C87.1422 127.16 85.1422 125.28 82.5422 125.28C79.9422 125.28 77.9422 127.16 77.9422 130C77.9422 132.84 79.9422 134.72 82.5422 134.72Z" fill="white"/>
<path d="M124.456 124.4V126.8C124.456 135.36 118.496 140.56 110.656 140.56C101.856 140.56 95.5359 134.08 95.5359 126.04C95.5359 117.92 101.976 111.44 110.216 111.44C115.576 111.44 120.096 114.08 122.456 117.84L117.016 120.96C115.856 119.12 113.336 117.68 110.176 117.68C105.456 117.68 101.936 121.16 101.936 126.08C101.936 130.84 105.296 134.32 110.736 134.32C114.456 134.32 116.896 132.68 117.896 130H110.416V124.4H124.456ZM141.424 140.56C133.384 140.56 126.864 134.24 126.864 126C126.864 117.76 133.384 111.44 141.424 111.44C149.464 111.44 155.984 117.76 155.984 126C155.984 134.24 149.464 140.56 141.424 140.56ZM141.424 134.32C145.984 134.32 149.584 131 149.584 126C149.584 121 145.984 117.68 141.424 117.68C136.864 117.68 133.264 121 133.264 126C133.264 131 136.864 134.32 141.424 134.32Z" fill="#FFE924"/>
<path d="M115.652 38.2524C84.1094 42.6683 61.7429 59.0704 50.2156 71.63L62.6605 78.7988C75.3348 57.522 96.2675 44.7903 115.652 38.2524Z" fill="#FFE924"/>
<path d="M115.824 32.46C85.1416 27.5853 59.6209 35.729 43.1042 44.9623V59.4718C63.7501 37.6789 92.253 31.5998 115.824 32.46Z" fill="#FFE924"/>
<path d="M115.766 28.1588C115.365 26.3236 114.046 24.4311 112.555 23.5708L82.905 6.48054C81.0698 5.39089 78.0303 5.39089 76.1377 6.48054L46.4878 23.5708C44.6526 24.6605 43.1042 27.2986 43.1042 29.4205V29.5925C68.1087 18.4667 95.522 21.3342 115.766 28.1588Z" fill="white"/>
<path d="M74.5319 85.6808L76.1377 86.5984C77.9729 87.688 81.0124 87.688 82.905 86.5984L112.555 69.5081C114.39 68.4184 115.939 65.8377 115.939 63.6584V45.0197C95.694 56.4897 82.4462 72.1462 74.5319 85.6808Z" fill="white"/>
<path d="M79.5213 93.0789C77.8582 93.0789 76.3097 92.6774 75.1054 91.9892L42.4159 73.1211C39.9499 71.6874 38 68.3037 38 65.4362V27.6426C38 24.7751 39.9499 21.3915 42.4159 19.9578L75.1054 1.08964C76.3097 0.401446 77.8582 0 79.5213 0C81.1845 0 82.7329 0.401446 83.9373 1.08964L116.684 19.9578C119.15 21.3915 121.1 24.7751 121.1 27.6426V65.4362C121.1 68.3037 119.15 71.6874 116.684 73.1211L83.9373 91.9892C82.7329 92.6774 81.1845 93.0789 79.5213 93.0789ZM79.5213 2.8675C78.3743 2.8675 77.2847 3.09688 76.5391 3.55568L43.7923 22.4238C42.1865 23.3414 40.8101 25.8074 40.8101 27.6426V65.4362C40.8101 67.2714 42.1865 69.7375 43.7923 70.6551L76.5391 89.5232C77.2847 89.982 78.3743 90.2114 79.5213 90.2114C80.6683 90.2114 81.758 89.982 82.5035 89.5232L115.193 70.6551C116.799 69.7375 118.175 67.2714 118.175 65.4362V27.6426C118.175 25.8074 116.741 23.3414 115.193 22.4238L82.5035 3.55568C81.758 3.09688 80.6683 2.8675 79.5213 2.8675Z" fill="white"/>
</svg>
